Coordinates
version=1
nRows=9
nColumns=63
inDegrees=yes

Units are S.I. units (second, meters, Newtons, ...)
If the header above contains a line with 'inDegrees', this indicates whether rotational values are in degrees (yes) or radians (no).

endheader
time	pelvis_tilt	pelvis_list	pelvis_rotation	pelvis_tx	pelvis_ty	pelvis_tz	hip_flexion_r	hip_adduction_r	hip_rotation_r	knee_angle_r	knee_angle_r_beta	ankle_angle_r	subtalar_angle_r	mtp_angle_r	hip_flexion_l	hip_adduction_l	hip_rotation_l	knee_angle_l	knee_angle_l_beta	ankle_angle_l	subtalar_angle_l	mtp_angle_l	L5_S1_Flex_Ext	L5_S1_Lat_Bending	L5_S1_axial_rotation	L4_L5_Flex_Ext	L4_L5_Lat_Bending	L4_L5_axial_rotation	L3_L4_Flex_Ext	L3_L4_Lat_Bending	L3_L4_axial_rotation	L2_L3_Flex_Ext	L2_L3_Lat_Bending	L2_L3_axial_rotation	L1_L2_Flex_Ext	L1_L2_Lat_Bending	L1_L2_axial_rotation	L1_T12_Flex_Ext	L1_T12_Lat_Bending	L1_T12_axial_rotation	Abs_r3	Abs_r2	Abs_r1	Abs_t1	Abs_t2	neck_flexion	neck_bending	neck_rotation	arm_flex_r	arm_add_r	arm_rot_r	elbow_flex_r	pro_sup_r	wrist_flex_r	wrist_dev_r	arm_flex_l	arm_add_l	arm_rot_l	elbow_flex_l	pro_sup_l	wrist_flex_l	wrist_dev_l
      1.43333333	      4.08764136	      1.92451174	     94.12752633	      0.32848623	      0.85943690	      0.63174798	      2.39984538	      0.17387334	     -1.31703588	     18.79316193	      0.32800255	     35.72166785	      2.36651103	      0.00000000	      3.82852535	     -2.75805938	     -6.48300966	     14.92301527	      0.26045575	     39.81025105	    -10.80154331	      0.00000000	     -0.25565837	      0.04718083	      0.19238428	     -0.47478316	      0.06275051	      0.20440830	     -0.42002114	      0.11471548	      0.20440830	     -0.29219195	      0.11471548	      0.16833624	     -0.23740436	      0.09621115	      0.15631223	     -0.14608319	      0.07308311	      0.14428821	     -1.82614218	      0.53371901	      1.06998365	      0.00000000	      0.00000000	     16.95877090	    -15.84026727	    -16.72517649	     -2.72870226	    -17.51900397	     35.43919714	     38.47012174	     87.76391643	     -6.64179678	      7.33075899	     49.76350635	     -4.67995873	    -21.08554073	    149.92912910	     82.21830581	     19.74420894	     -7.78079390
      1.45000000	      4.39597156	      2.17911612	     94.55638076	      0.32742156	      0.86031141	      0.63108165	      1.84895263	      0.48748128	     -1.84483362	     18.32809668	      0.31988563	     35.40278927	      2.40034958	      0.00000000	      3.55659407	     -3.08467975	     -6.07618671	     14.81812673	      0.25862510	     39.78153665	    -10.48065858	      0.00000000	     -0.26014724	      0.07517821	      0.08665048	     -0.48311944	      0.09998702	      0.09206613	     -0.42739590	      0.18278830	      0.09206613	     -0.29732228	      0.18278830	      0.07581917	     -0.24157273	      0.15330340	      0.07040351	     -0.14864813	      0.11645105	      0.06498786	     -1.85820571	      0.85043094	      0.48192397	      0.00000000	      0.00000000	     15.96695895	    -16.72013922	    -17.39034362	     -2.92120063	    -17.23091838	     36.22176392	     35.85543049	     86.96618766	     -6.88219951	      4.73343657	     49.98361661	     -4.00270813	    -20.30041417	    149.92885070	     81.00813730	     20.28892511	     -6.99429374
      1.46666667	      4.58404964	      2.40848772	     94.82153303	      0.32657132	      0.86115150	      0.63105328	      1.56762805	      0.59197968	     -2.84110702	     18.19819342	      0.31761839	     35.45644715	      2.85427485	      0.00000000	      3.39523057	     -3.29655619	     -5.88641231	     14.91067792	      0.26024042	     39.71184463	    -10.41270152	      0.00000000	     -0.26966349	      0.08990004	     -0.05534163	     -0.50079207	      0.11956705	     -0.05880049	     -0.44303015	      0.21858295	     -0.05880049	     -0.30819840	      0.21858295	     -0.04842393	     -0.25040952	      0.18332416	     -0.04496508	     -0.15408572	      0.13925516	     -0.04150622	     -1.92617934	      1.01696720	     -0.30779356	      0.00000000	      0.00000000	     15.34344334	    -17.21017445	    -17.38513967	     -2.30791669	    -17.08141285	     39.27071031	     32.81149546	     84.32715826	     -7.56558471	      0.98461550	     50.33277434	     -3.71196344	    -20.02901903	    149.92837910	     79.61618789	     20.96268708	     -4.79230793
      1.48333333	      5.08098780	      2.66864083	     94.88631737	      0.32554405	      0.86204695	      0.63074120	      1.22287159	      1.06106652	     -3.31221386	     17.87771628	      0.31202501	     35.42894393	      2.93684283	      0.00000000	      3.18425887	     -3.84050950	     -5.92276188	     15.05437860	      0.26274847	     39.59807069	    -10.41282577	      0.00000000	     -0.27634466	      0.14825947	     -0.14929910	     -0.51319968	      0.19718510	     -0.15863030	     -0.45400665	      0.36047809	     -0.15863030	     -0.31583432	      0.36047809	     -0.13063672	     -0.25661365	      0.30233072	     -0.12130552	     -0.15790334	      0.22965393	     -0.11197433	     -1.97390230	      1.67714083	     -0.83035683	      0.00000000	      0.00000000	     14.56653632	    -18.05424944	    -17.37300662	     -2.37139414	    -16.95101836	     39.36518163	     30.76623027	     82.46228182	     -6.28235716	     -1.05352839	     50.21303479	     -3.49839113	    -19.10202749	    149.92749593	     79.36760305	     19.19346873	     -3.45814042
      1.50000000	      5.59803871	      2.93867709	     94.59110663	      0.32460932	      0.86296365	      0.63068092	      1.01801637	      1.43887727	     -3.95751906	     17.74530049	      0.30971392	     35.63154341	      3.86102829	      0.00000000	      2.93220015	     -4.38986135	     -6.30973123	     15.24030805	      0.26599355	     39.46174038	    -10.65730259	      0.00000000	     -0.29021661	      0.19762138	     -0.27686435	     -0.53896126	      0.26283643	     -0.29416837	     -0.47679687	      0.48049661	     -0.29416837	     -0.33168856	      0.48049661	     -0.24225631	     -0.26949514	      0.40298951	     -0.22495229	     -0.16582977	      0.30611551	     -0.20764826	     -2.07298821	      2.23553253	     -1.53983646	      0.00000000	      0.00000000	     13.83397842	    -18.29918125	    -17.06455612	     -0.92042383	    -17.38643094	     45.20040061	     28.49988840	     75.76850072	     -5.88741158	     -3.44610795	     49.58924753	     -3.96606557	    -16.03165970	    149.92711875	     82.58587298	     10.52359624	     -6.49615215
      1.51666667	      6.17162694	      3.13849258	     94.09483409	      0.32401397	      0.86385485	      0.63036247	      0.85779050	      1.96540151	     -3.82959875	     17.49069245	      0.30527017	     35.70883171	      4.16349802	      0.00000000	      2.71457793	     -4.99252726	     -6.88648072	     15.45136686	      0.26967723	     39.23631617	    -11.15901721	      0.00000000	     -0.29938786	      0.26898453	     -0.34131164	     -0.55599320	      0.35774942	     -0.36264362	     -0.49186432	      0.65400898	     -0.36264362	     -0.34217039	      0.65400898	     -0.29864768	     -0.27801157	      0.54851325	     -0.27731571	     -0.17107022	      0.41665703	     -0.25598373	     -2.13849755	      3.04280678	     -1.89827294	      0.00000000	      0.00000000	     13.28850250	    -18.81746062	    -16.28917132	     -0.61197986	    -17.50649372	     45.43301786	     27.48661227	     75.21293833	     -5.00634724	     -3.94174941	     49.32015985	     -3.98268482	    -15.85476804	    149.92611696	     82.65588355	      9.26465272	     -6.21757396
      1.53333333	      7.02906125	      3.34570616	     93.37897445	      0.32231978	      0.86478072	      0.63012997	      0.75849207	      2.63178283	     -4.04002902	     17.34701634	      0.30276255	     35.72893095	      5.09869100	      0.00000000	      2.46874233	     -5.76775252	     -7.34785482	     15.63742542	      0.27292456	     39.13550611	    -12.01511745	      0.00000000	     -0.31493634	      0.35883851	     -0.42246239	     -0.58486828	      0.47725522	     -0.44886629	     -0.51740891	      0.87247996	     -0.44886629	     -0.35994074	      0.87247996	     -0.36965459	     -0.29244989	      0.73174349	     -0.34325069	     -0.17995463	      0.55584085	     -0.31684680	     -2.24955879	      4.05925301	     -2.34960910	      0.00000000	      0.00000000	     12.80902895	    -18.46446021	    -16.08566056	      1.60797029	    -18.56001233	     55.19946751	     25.96063456	     65.58284517	     -5.00419265	     -6.37180430	     48.60867534	     -5.06728616	     -6.56913525	    149.92339759	     87.46056885	    -16.56150971	    -15.63945259
      1.55000000	      7.50042221	      3.46030159	     92.76199379	      0.32184620	      0.86545574	      0.62966728	      0.69635844	      3.01560430	     -3.89012602	     17.23593872	      0.30082388	     35.74731333	      5.51752270	      0.00000000	      2.27335724	     -6.21505156	     -7.96659357	     15.77514455	      0.27532821	     39.02871979	    -12.58150049	      0.00000000	     -0.32403126	      0.41327520	     -0.42750212	     -0.60175846	      0.54965602	     -0.45422100	     -0.53235096	      1.00483733	     -0.45422100	     -0.37033533	      1.00483733	     -0.37406435	     -0.30089543	      0.84275080	     -0.34734547	     -0.18515146	      0.64016329	     -0.32062659	     -2.31452291	      4.67505177	     -2.37763853	      0.00000000	      0.00000000	     12.57810857	    -18.32184183	    -15.52007564	      1.85011010	    -18.74849560	     55.47452706	     25.50206757	     65.74890146	     -4.84650911	     -6.30711115	     48.11831722	     -4.97517901	     -6.72145755	    149.92185643	     87.22618119	    -16.71973457	    -16.67352368
      1.56666667	      7.85931160	      3.55168500	     92.08979411	      0.32137509	      0.86596049	      0.62929454	      0.65948472	      3.25936908	     -3.69029909	     17.25448296	      0.30114754	     35.57427152	      5.93475497	      0.00000000	      2.04452860	     -6.51131994	     -8.61874259	     15.80931533	      0.27592461	     38.89534431	    -13.11913246	      0.00000000	     -0.33308422	      0.45641459	     -0.37709278	     -0.61857071	      0.60703141	     -0.40066108	     -0.54722407	      1.10972644	     -0.40066108	     -0.38068196	      1.10972644	     -0.32995618	     -0.30930201	      0.93072064	     -0.30638789	     -0.19032433	      0.70698621	     -0.28281959	     -2.37918730	      5.16305317	     -2.09727693	      0.00000000	      0.00000000	     12.43511186	    -18.06140994	    -15.00165192	      2.00806151	    -19.13280842	     56.06523522	     25.32526191	     65.84144112	     -4.70693346	     -6.37309216	     47.63957052	     -4.61080766	     -6.93982798	    149.91961724	     86.62431969	    -16.92914785	    -18.20627101
